<svg width="28" height="19" viewBox="0 0 28 19" fill="none" xmlns="http://www.w3.org/2000/svg">
<path d="M26.2052 10.6398H1.7949C0.803359 10.6398 0 10.0132 0 9.23986C0 8.46651 0.803359 7.83984 1.7949 7.83984H26.2052C27.1966 7.83984 28 8.46646 28 9.23986C28 10.0133 27.1966 10.6398 26.2052 10.6398Z" fill="#7DE0FF"/>
<path d="M13.104 2.8H1.45602C0.651683 2.8 0 2.17335 0 1.4C0 0.626654 0.651683 0 1.45602 0H13.104C13.9083 0 14.56 0.626611 14.56 1.4C14.56 2.17339 13.9083 2.8 13.104 2.8Z" fill="#7DE0FF"/>
<path d="M26.5434 18.4797H14.8955C14.0911 18.4797 13.4395 17.853 13.4395 17.0797C13.4395 16.3063 14.0911 15.6797 14.8955 15.6797H26.5434C27.3477 15.6797 27.9995 16.3063 27.9995 17.0797C27.9995 17.8531 27.3477 18.4797 26.5434 18.4797Z" fill="#7DE0FF"/>
</svg>
